<?xml version="1.0" encoding="us-ascii" standalone="no"?><svg xmlns="http://www.w3.org/2000/svg" xmlns:xlink="http://www.w3.org/1999/xlink" contentStyleType="text/css" height="162px" preserveAspectRatio="none" style="width:375px;height:162px;background:#FFFFFF;" version="1.1" viewBox="0 0 375 162" width="375px" zoomAndPan="magnify"><defs/><g><text fill="#000000" font-family="sans-serif" font-size="14" font-weight="bold" lengthAdjust="spacing" textLength="229" x="66" y="22.9951">API Gateway e Componentes</text><!--cluster gateway--><g id="cluster_gateway"><polygon fill="none" points="16,53.2969,26,43.2969,358,43.2969,358,135.2969,348,145.2969,16,145.2969,16,53.2969" style="stroke:#181818;stroke-width:1.0;"/><line style="stroke:#181818;stroke-width:1.0;" x1="348" x2="358" y1="53.2969" y2="43.2969"/><line style="stroke:#181818;stroke-width:1.0;" x1="16" x2="348" y1="53.2969" y2="53.2969"/><line style="stroke:#181818;stroke-width:1.0;" x1="348" x2="348" y1="53.2969" y2="145.2969"/><text fill="#000000" font-family="sans-serif" font-size="14" font-weight="bold" lengthAdjust="spacing" textLength="36" x="165" y="69.292">AWS</text></g><!--entity api_gateway--><g id="elem_api_gateway"><rect fill="#F1F1F1" height="46.2969" rx="2.5" ry="2.5" style="stroke:#181818;stroke-width:0.5;" width="175" x="166.5" y="83.2969"/><rect fill="#F1F1F1" height="10" style="stroke:#181818;stroke-width:0.5;" width="15" x="321.5" y="88.2969"/><rect fill="#F1F1F1" height="2" style="stroke:#181818;stroke-width:0.5;" width="4" x="319.5" y="90.2969"/><rect fill="#F1F1F1" height="2" style="stroke:#181818;stroke-width:0.5;" width="4" x="319.5" y="94.2969"/><text fill="#000000" font-family="sans-serif" font-size="14" lengthAdjust="spacing" textLength="135" x="181.5" y="116.292">API Gateway (proxy)</text></g><!--entity vpc_link--><g id="elem_vpc_link"><rect fill="#F1F1F1" height="46.2969" rx="2.5" ry="2.5" style="stroke:#181818;stroke-width:0.5;" width="99" x="32.5" y="83.2969"/><rect fill="#F1F1F1" height="10" style="stroke:#181818;stroke-width:0.5;" width="15" x="111.5" y="88.2969"/><rect fill="#F1F1F1" height="2" style="stroke:#181818;stroke-width:0.5;" width="4" x="109.5" y="90.2969"/><rect fill="#F1F1F1" height="2" style="stroke:#181818;stroke-width:0.5;" width="4" x="109.5" y="94.2969"/><text fill="#000000" font-family="sans-serif" font-size="14" lengthAdjust="spacing" textLength="59" x="47.5" y="116.292">VPC Link</text></g><!--SRC=[AyaioKbLK78Cy5HmJon9BK-iL4XLSCxFBSZFIyqhIIrMukBAoqy1gGWFLb98B5P8Xwggvb80WcIOIbGZD0gAyYigDS4Q4Wiouw6QqBM41JWh-6JcPOFLbHKan-S0ELorN000]--></g></svg>